<?xml version="1.0" encoding="UTF-8"?>
<svg id="Calque_1" xmlns="http://www.w3.org/2000/svg" viewBox="0 0 720 720">
  <path d="M344.09,357.74c-1.07-1.83-2.54-3.41-3.94-5.01-1.24-1.42-1.84-2.8-1.51-4.76.44-2.59.54-5.24.79-7.87.05-.55.24-1.2-.38-1.5-.51-.25-.87.24-1.21.55-2.84,2.59-6.28,3.66-10,4.2-6.56.95-13.12,1.95-19.66,3.01-1.63.26-2.94-.04-4.23-1.04-2.4-1.85-4.87-3.64-7.35-5.39-1.27-.9-1.82-2.04-2.05-3.58-1.76-11.77-3.55-23.53-5.47-35.27-.23-1.4.48-3.27-1.42-4.24-.26-.13.92-.38.69-1.14-.23-.75-.33-1.56-.4-2.35-.16-1.81.18-2.26,2-2.55,3.16-.5,6.32-.96,9.48-1.44,3.79-.58,7.59-1.13,11.37-1.76,5.17-.86,9.79.19,13.93,3.53,2.92,2.35,6,4.52,9.08,6.68,5.29,3.71,8.11,10.99,6.12,17.38-.32,1.04-.53,2.01.22,2.95.26.32.54.59,1,.44.36-.11.46-.43.5-.75.16-1.35.32-2.7.46-4.05.31-2.94.56-5.88.93-8.81.23-1.79.52-1.99,2.35-1.83,3.18.27,6.36.61,9.55.91q2.43.23,3.5-1.92c3.49-7.07,9-11.75,16.64-13.74,7.38-1.92,14.27-.49,20.63,3.57,3.1,1.97,6.09,4.11,9.14,6.17,1.14.77,2.27,1.44,1.71,3.22-.28.88.67,1.35,1.33,1.79,1.86,1.24,3.7,2.53,5.6,3.7,1.47.9,2.3,2.1,2.54,3.82.26,1.9.74,3.76,1.05,5.65,2.18,13.32-7.21,26.79-21.55,28.76-6.32.87-12.07-.5-17.37-3.89-3.84-2.45-7.61-5.01-11.41-7.52-1.9-1.26-2.29-1.11-2.5,1.04-.83,8.35-1.65,16.69-2.47,25.04-.23,2.31-.53,2.56-2.83,2.47-1.26-.05-2.48-.5-3.98-.27.88,1.23,2.06,1.92,3.09,2.76,1.19.96,1.81,2.07,1.95,3.65.57,6.52,1.26,13.04,1.91,19.55.03.32.04.64.11.95.32,1.33.92,1.61,2.03.83,2.01-1.41,3.19-3.31,3.19-5.85,0-3.29-.5-6.53-.82-9.79-.49-5.09-1.08-10.16-1.59-15.25-.23-2.32.14-2.75,2.54-3.01,3.49-.39,6.99-.72,10.48-1.11.96-.11,1.7.24,2.41.82,2.59,2.14,5.18,4.27,7.79,6.38,1.12.91,1.74,1.98,1.73,3.49,0,1.27.31,2.53.43,3.81.2,2.24.44,2.59,2.65,2.93,3.79.58,7.59,1.11,11.38,1.65,2.53.36,5.07.65,7.59,1.06,3.92.64,7.24,2.44,9.87,5.45.31.35.66.67,1,1,.04.04.15,0,.44,0,.47-1,.1-2.08-.06-3.12-.42-2.68-.94-5.35-1.36-8.03-.23-1.49.03-1.94,1.43-2.2,3.85-.71,7.71-1.33,11.57-2,.87-.15,1.54.18,2.22.66,2.73,1.95,5.47,3.9,8.22,5.81,1.2.84,1.78,1.96,2.01,3.38.96,5.83,1.97,11.65,2.95,17.48.04.24.06.48.1.71.55,3.04.75,3.18,3.74,2.65,2.36-.42,4.72-.83,7.08-1.25,1.22-.22,2.31-.13,3.43.59,1.48.96,1.87.71,2.03-1.09.5-5.73.98-11.46,1.47-17.19.48-5.73.95-11.46,1.44-17.2.17-2,.48-2.31,2.58-2.15,6.85.53,13.7,1.11,20.55,1.67,3.42.28,6.85.6,10.28.81,2.18.13,3.93.77,5.3,2.67,1.67,2.33,3.65,4.44,5.53,6.62.83.96,1.21,1.98,1.07,3.29-.34,3.09-.6,6.2-.85,9.3-.24,3.01-.39,3.2-3.49,3.02-2.39-.14-4.78-.4-7.16-.6-.64-.05-1.28-.14-1.91-.13-.68.02-1.18.47-.75,1.08,1.17,1.65.52,3.41.44,5.12-.08,1.67-.34,3.26,2.02,3.53.61.07,1.03.7,1.45,1.2,2.11,2.51,4.22,5.01,6.36,7.5.82.96,1.2,1.99,1.06,3.29-.34,3.26-.58,6.53-.86,9.79-.21,2.45-.59,2.81-2.92,2.61-9.64-.81-19.27-1.62-28.91-2.44-1.2-.1-2.3,0-3.48.45-2.62,1-5.46,1.13-8.21,1.62-8.25,1.48-16.53,2.83-24.79,4.29-1.54.27-2.8,0-4.03-.94-1.85-1.4-3.76-2.71-5.67-4.02-1.7-1.16-2.06-1.02-2.36,1.08-.3,2.08-.76,4.09-1.81,5.92-3.4,5.92-9.6,9.02-16.37,8.07-7.2-1-14.38-2.15-21.58-3.14-1.48-.2-2.49-.84-3.34-2.01-1.73-2.4-3.48-4.79-5.34-7.08-1.1-1.36-1.45-2.78-1.12-4.45.19-.94.32-1.89.43-2.84.25-2.34.04-2.49-2.04-1.59-.88.38-1.76.77-2.67,1.05-7.86,2.43-15,.95-21.43-4.08-2.45-1.92-4.83-3.94-7.24-5.91-.42-.34-.86-.86-1.46-.46-.45.3-.31.87-.26,1.33.33,3.46.18,6.88-.88,10.21-2.89,9.1-8.93,15.07-18.21,17.33-9.35,2.28-17.65-.06-24.34-7.03-3.98-4.14-7.64-8.6-11.17-13.15-.29-.38-.57-.83-.96-1.05-4.93-2.73-8.88-6.76-13.39-10.06-.45-.33-.87-.7-1.35-1-1.52-.95-3.1-.56-4.6,0-.79.29-.78,1.12-.7,1.87.21,1.91.41,3.81.61,5.72.17,1.63-.23,2.22-1.86,2.4-3.49.39-7,.68-10.49,1.04-1.36.14-2.49-.24-3.53-1.12-2.45-2.06-4.92-4.09-7.4-6.11-.98-.8-1.49-1.75-1.59-3.06-.2-2.95-.58-5.88-.86-8.82-.23-2.37-.59-2.76-2.89-2.91-1.2-.08-2.39-.15-3.59-.18-1.58-.04-1.96.3-2.13,1.9-.16,1.59-.27,3.18-.37,4.78-.53,7.97-1.05,15.95-1.59,23.92-.16,2.43-.47,2.66-2.97,2.46-3.27-.25-6.53-.52-9.81-.69-1.29-.07-2.29-.46-3.14-1.45-2.18-2.55-4.38-5.09-6.63-7.58-.97-1.07-1.02-2.29-.93-3.58.41-5.98.83-11.96,1.25-17.94.04-.64.11-1.27.13-1.91.03-.88-.26-1.58-1.22-1.79-1.17-.26-1.9-1.1-2.64-1.96-1.98-2.3-3.97-4.6-6.01-6.85-.86-.96-1.23-1.99-1.14-3.27.26-3.42.43-6.86.71-10.28.18-2.16.5-2.36,2.74-2.21,11.01.72,22.01,1.46,33.02,2.15,1.45.09,2.78.44,4.12,1.39.59-1.74.17-3.22.07-4.68-.09-1.51-.32-3.02-.39-4.53-.07-1.48.21-1.85,1.71-2.06,2.21-.31,4.45-.49,6.68-.71,3.98-.38,7.97-.66,11.93-1.15,5.66-.7,10.58.89,14.93,4.44,2.97,2.43,5.84,4.98,8.85,7.36,4.21,3.33,6.83,7.54,7.52,12.9.07.55.15,1.11.25,1.66.14.77.65.88,1.23.53.47-.29.85-.72,1.29-1.07,11.2-9.21,27.28-7.52,36.33,3.8.9,1.12,1.83,2.22,2.75,3.33.3.36.57.9,1.12.73.73-.23.47-.93.44-1.44-.12-1.75-.3-3.5-.48-5.25-.58-5.64-1.16-11.28-1.75-16.92-.02-.24-.05-.48-.06-.72-.11-1.89.17-2.28,2.01-2.49,1.75-.21,3.5-.34,5.25-.54.61-.07,1.3.1,1.86-.57ZM327.96,303.02c.03-8.24-8.05-14.77-15.87-13.31-3.61.67-7.26,1.09-10.89,1.63-2.92.44-5.84.9-8.75,1.37-1.74.28-2.41.83-1.99,2,.45,1.25.3,2.5.5,3.73,1.88,11.98,3.73,23.96,5.59,35.95.31,1.97.51,2.13,2.46,1.98.48-.04.95-.1,1.43-.17,5.84-.9,11.64-2.12,17.51-2.64,9.69-.85,16.94-12.54,9.67-22.09-.89-1.17-1.03-2.21-.47-3.53.66-1.56.86-3.23.8-4.92ZM264.33,354.09c-3.51.33-7.81.73-12.1,1.15-1.91.19-3.82.34-5.71.62-1.8.27-1.97.52-1.83,2.38.14,1.83.49,3.65.53,5.49.07,3.47.72,6.63,3.56,9,.89.75,1.25,1.8,1.16,3.01-.24,3.19-.43,6.38-.68,9.56-.1,1.26-.16,2.55-1.13,3.57-.32.34-.41.84-.36,1.35.28,2.62.55,5.24.79,7.87.11,1.2.75,1.7,1.91,1.59,2.07-.18,4.14-.35,6.2-.55,2.18-.21,2.48-.52,2.35-2.68-.11-1.91-.4-3.82-.47-5.73-.06-1.44.33-1.83,1.76-2.03,1.03-.15,2.1-.04,3.1-.28,1.93-.48,3.37.21,4.82,1.4,3.28,2.67,6.65,5.25,9.99,7.85,1.6,1.24,1.8,1.23,3.1-.35,1.37-1.66,2.71-3.36,4-5.08.96-1.28.92-1.59-.28-2.58-1.85-1.52-3.77-2.97-5.65-4.45-2.09-1.65-2.15-1.92-.65-4.04,2.65-3.75,3.72-7.83,3.07-12.45-1.16-8.22-8.39-14.64-17.49-14.62ZM407.13,420.86c1.54.06,3.03-.17,4.48-.69,7.99-2.88,11.06-11.43,8.25-17.88-.5-1.16-.53-2.13.35-3.08.32-.35.57-.77.83-1.17,5.52-8.6-.11-19.41-9.34-20.88-6.23-.99-12.49-1.8-18.74-2.67-1.84-.26-2.14,0-1.99,1.86.36,4.46.76,8.91,1.2,13.37.63,6.4-1.2,12.07-5.47,16.78-1.73,1.91-2.64,3.88-2.81,6.35-.05.71-.22,1.42-.33,2.13-.35,2.27-.08,2.63,2.21,2.96,3.95.58,7.89,1.23,11.85,1.74,3.17.41,6.3,1.13,9.5,1.2ZM313.25,374.17c-6.55-.09-11.85,2.28-16.47,6.51-2.81,2.58-4.15,6-5.75,9.29-.53,1.09.13,1.83.9,2.47,1.72,1.42,3.47,2.83,5.2,4.23,2.2,1.77,2.24,2.06.56,4.22-1.27,1.64-2.57,3.26-3.84,4.9-1.54,1.99-1.54,2.13-.2,4.19,5.09,7.8,14.44,11.62,23.74,9.93,10.75-1.95,19.81-12.54,18.51-25.1-1.22-11.76-11.84-21.01-22.65-20.63ZM383.16,289.83c-10.82-.08-19.3,5.47-23.02,13.92-.72,1.64-.8,2.93.54,4.33,1.49,1.55,2.69,3.37,4.12,4.98,1.04,1.17,1.38,2.43,1.21,3.96-.37,3.17-.49,6.38-1.01,9.52-.34,2.06.45,3.27,1.93,4.47,12.27,9.94,31.06,4.51,36.23-10.41,1.8-5.21,1.47-10.36.22-15.56-.33-1.39-.77-1.65-2.54-1.32-5.49,1.05-10.97,2.14-16.44,3.27-1.97.41-2.16.78-1.75,2.83.37,1.88.76,3.76,1.15,5.63.44,2.09.67,2.25,2.72,1.88,1.49-.27,2.97-.63,4.47-.85,1.73-.25,2.26.46,1.55,2.02-.5,1.1-1.16,2.09-1.98,2.98-3.6,3.89-9.36,5.04-14.31,2.84-4.89-2.17-7.73-7.08-7.28-12.62.41-5.16,4.27-9.58,9.39-10.9,2.67-.69,5.25-.52,7.74.55,1.23.53,1.95.19,2.61-.81,1.19-1.8,2.41-3.58,3.58-5.39,1.07-1.65.98-2.05-.75-2.94-3.11-1.6-6.43-2.36-8.37-2.38ZM503.85,367.69c.04-.7.07-1.1.1-1.49.21-2.88.22-2.92-2.66-3.19-4.06-.39-8.12-.73-12.18-1.07-5.02-.41-10.04-.82-15.06-1.19-2.11-.15-2.29.04-2.5,2.17-.19,1.99-.36,3.98-.52,5.97-.77,9.15-1.49,18.31-2.34,27.46-.18,1.94.41,3.17,2.04,4.17,1.21.74,2.68,1.37,3.25,2.75.64,1.55,1.79,1.85,3.22,1.96,4.06.32,8.12.68,12.18,1.02,3.03.25,6.05.51,9.09.7,1.72.11,1.89-.04,2.13-1.78.22-1.58.33-3.18.45-4.77.29-3.85.28-3.8-3.71-4.09-5.1-.37-10.2-.81-15.29-1.28-2.29-.21-2.48-.52-2.31-2.91.02-.24.03-.48.05-.72.2-2.25.53-2.54,2.86-2.4,1.67.1,3.34.3,5.02.41,1.8.12,2.16-.16,2.34-1.86.21-2.07.39-4.14.52-6.21.14-2.09-.03-2.25-2.19-2.52-.56-.07-1.11-.14-1.67-.18-1.27-.1-2.56-.12-3.82-.31-1.61-.24-1.88-.65-1.78-2.22.02-.4.09-.79.12-1.19.24-2.69.34-2.83,3.05-2.62,5.58.43,11.15.91,16.73,1.36,1.93.15,2.29-.14,2.49-1.96.16-1.43.28-2.86.4-3.99ZM380.13,383.12c-.03-.64-.03-1.28-.1-1.92-.56-5.64-1.12-11.28-1.69-16.91-.19-1.83-.34-3.66-.62-5.47-.22-1.45-.64-1.74-2.08-1.6-2.23.21-4.45.45-6.67.71-1.42.17-1.79.59-1.65,2.03.45,4.77.97,9.53,1.42,14.3.31,3.34.93,6.66.79,10.02-.23,5.67-5.82,10-11.34,8.86-4.51-.93-7.44-4.07-7.95-8.72-.79-7.14-1.49-14.29-2.23-21.43-.23-2.18-.82-2.75-3.05-2.65-1.75.08-3.5.33-5.24.48-2.08.18-2.48.66-2.26,2.74.76,7.22,1.65,14.44,2.23,21.67.4,4.98,2.68,9.06,5.86,12.56,5.47,6.01,14.54,7.71,22.07,4.58,7.63-3.17,13.01-11.02,12.53-19.25ZM209.79,364.13s0,.02,0,.02c-1.04-.06-2.07-.13-3.11-.19-1.19-.07-1.76.53-1.84,1.69-.14,2.15-.34,4.3-.43,6.45-.09,2.09.12,2.31,2.24,2.49,2.39.2,4.78.31,7.17.52,1.89.16,2.23.52,2.15,2.38-.08,1.83-.3,3.66-.43,5.49-.48,6.85-.95,13.7-1.41,20.56-.08,1.12-.09,2.24-.15,3.35-.06,1.05.39,1.74,1.44,1.83,2.47.21,4.94.35,7.41.5.97.06,1.48-.48,1.64-1.38.08-.47.11-.95.14-1.43.63-9.24,1.25-18.48,1.88-27.72.16-2.39.46-2.68,2.97-2.55,2.23.11,4.46.32,6.69.46,2.04.13,2.13.01,2.49-1.94.38-2.06.32-4.14.44-6.21.12-2.03-.14-2.31-2.28-2.46-9-.64-18.01-1.24-27.01-1.86ZM430.9,409.95c.02,2.97.71,3.56,3.6,3.08,4.88-.82,9.76-1.66,14.64-2.5,4.17-.72,8.34-1.44,12.5-2.2,1.59-.29,1.83-.68,1.58-2.27-.32-2.05-.67-4.1-1.05-6.14-.39-2.09-.65-2.26-2.69-1.91-5.59.96-11.18,1.92-16.77,2.87-2.25.38-2.67.11-3.07-2.13-.55-3.07-1.06-6.14-1.58-9.21-1.09-6.37-2.16-12.75-3.28-19.12-.33-1.87-.76-2.14-2.6-1.83-1.97.33-3.94.67-5.9,1.06-2.05.41-2.23.7-1.88,2.77.59,3.46,1.27,6.91,1.75,10.39.42,3.08,1.53,5.72,3.47,8.23,4.01,5.17,4.61,10.9,1.84,16.9-.3.66-.61,1.31-.55,2ZM341.16,345.79c-.02.32-.05.64-.07.96-.07,2.1.14,2.35,2.18,2.56,1.99.2,3.97.42,5.96.56,1.8.13,2.13-.13,2.35-1.89.25-1.98.38-3.97.58-5.95.77-7.62,1.56-15.24,2.32-22.87.36-3.57.73-7.15,1.03-10.73.13-1.63-.21-2.02-1.79-2.21-2.14-.26-4.29-.47-6.44-.6-1.83-.12-2.1.14-2.3,1.91-.33,3.1-.65,6.19-.93,9.29-.38,4.18-.54,8.39-1.13,12.54-.77,5.46-1.09,10.96-1.78,16.43ZM435.95,415.41c1.78-.34,3.88-.72,6-1.02,5.03-.73,10.02-1.7,15.03-2.57,1.41-.24,2.84-.38,4.22-.75.66-.18,1.92-.21,1.72-1.23-.2-1.05-1.39-.62-2.05-.48-3.88.84-7.8,1.4-11.7,2.08-4.37.76-8.68,1.89-13.13,2.19-.47.03-.93.2-1.38.33-.4.12-.78.35-.65.82.1.4.46.63.91.63.24,0,.48,0,1.04,0ZM301.79,338.71c.92-.22,1.92-.48,2.93-.7.93-.2,1.81-.58,2.79-.58,4.65.02,9.12-1.2,13.64-2.06.53-.1,1.05-.37,1.53-.63.28-.15.42-.47.25-.82-.16-.33-.45-.48-.78-.36-2.73.98-5.61,1.11-8.44,1.49-3.38.46-6.64,1.6-10.1,1.6-.87,0-1.75.12-2.6.32-.39.09-1.02.25-.92.89.07.42.54.55.9.7.21.09.47.08.8.14ZM312.8,422.98c.98-.1,1.93-.18,2.87-.3,2.55-.3,4.96-1.12,7.35-2.02.35-.13.79-.37.7-.84-.1-.55-.58-.46-.95-.33-3.49,1.24-7.15,1.5-10.78,1.99-.4.05-.83.14-.87.63-.04.48.34.69.75.78.31.07.63.07.93.1ZM382.7,338.71c2.23-.44,4.84-.7,7.31-1.64.37-.14.73-.32,1.07-.53.26-.17.56-.39.44-.76-.17-.52-.62-.4-.98-.3-2.77.77-5.63,1.02-8.44,1.57-.64.13-1.97-.18-1.82.95.12.9,1.29.66,2.42.72ZM369.34,403.09c-1.31.31-2.67.61-4.02.95-1.86.47-3.72.83-5.65.81-.41,0-.83.15-.85.65-.01.46.35.67.76.76.23.05.47.06.71.07,3.1.15,5.98-.66,8.72-2.04.36-.18.6-.51.33-1.19ZM252.66,402.15c1.58-.76,3.36-.37,5.09-.53.57-.05,1.16-.28,1.08-.97-.06-.58-.65-.62-1.12-.66-2.01-.16-3.92.6-5.91.63-.34,0-.61.27-.64.61-.04.45.3.7.69.82.22.07.47.07.8.12ZM380.82,301.3c-1.06.2-2.02.26-2.85.74-.32.18-.75.37-.55.88.17.41.54.58.96.51,1.08-.17,2.16-.35,3.23-.58.29-.06.54-.34.54-.7,0-.36-.29-.55-.56-.67-.28-.12-.6-.15-.77-.19ZM409.67,423.25c.86-.25,1.94-.52,2.99-.87.44-.15.89-.47.6-1.07-.2-.41-.61-.5-1.02-.37-1.06.33-2.12.68-3.17,1.06-.36.13-.81.31-.63.83.16.48.64.33,1.24.42ZM382.45,319.96c-.2.18-.47.3-.52.48-.21.8-.18,1.59.5,2.17.55.47,1.2.37,1.78.06.34-.18.68-.53.44-.96-.47-.88-1.38-1.24-2.2-1.75ZM264.56,390.03c-.19-.52-.58-.86-1.2-.8-.62.06-1.31.22-1.35.99-.04.74.59.79,1.15.8.67.01,1.23-.13,1.39-.99ZM236.88,377.59c-.46.13-1.34-.07-1.25.88.07.73.77.63,1.31.65.6.02,1.24-.2,1.25-.8,0-.6-.57-.88-1.31-.73ZM499.19,375.26c-.12-.64-.64-.67-1.09-.7-.53-.04-1.2-.16-1.39.52-.18.63.43.76.87.83.64.09,1.26.04,1.61-.64ZM480.12,407.29c-.04-.59-.41-.82-.94-.86-.49-.04-.99,0-1.13.59-.11.5.25.74.66.79.53.05,1.13.18,1.4-.51ZM388.05,319.44c.4-.08.83-.3.81-.85-.02-.5-.47-.53-.86-.52-.43.02-.78.21-.76.67.01.41.24.73.81.7ZM350.56,351.84c-.06-.53-.42-.64-.84-.63-.4.01-.84.04-.78.6.04.37.41.45.71.5.41.07.78,0,.91-.47ZM488.79,391.21c-.08-.46-.37-.64-.81-.61-.44.02-.79.27-.76.69.02.4.37.66.82.64.47-.01.66-.31.76-.72ZM489.36,374.37c.01-.42-.28-.56-.6-.59-.4-.04-.83,0-.95.49-.12.49.33.49.59.52.37.05.8.08.96-.42ZM485.43,374.06c-.1-.35-.39-.48-.7-.49-.37-.01-.54.26-.51.61.04.39.36.48.67.47.35,0,.55-.21.53-.59ZM230.47,377.59c-.25,0-.48.09-.5.35-.03.41.31.54.62.54.29,0,.69-.04.61-.5-.07-.38-.41-.39-.73-.39ZM223.76,411.04c.1-.3-.05-.56-.37-.7-.22-.09-.49-.07-.62.18-.18.32-.1.62.2.82.33.22.58.08.8-.3ZM501.42,375.82c.13-.09.42-.19.46-.35.07-.31-.05-.66-.46-.64-.19,0-.48.17-.54.33-.12.34.09.58.53.66ZM216.89,411.01c.23-.05.46-.12.47-.39.02-.36-.22-.53-.55-.53-.24,0-.44.13-.45.39-.01.35.17.55.53.54Z"/>
  <path d="M269.13,305.04c-1.02,2.15-.69,3.46,1.51,5.17,2.02,1.57,4.11,3.04,6.19,4.54,2.04,1.47,2.43,3.89.66,5.67-1.27,1.27-2.26,2.61-2.95,4.28-.75,1.82-3.19,2.25-5.14.99-1.67-1.09-3.38-2.17-4.89-3.46-3.03-2.58-5.98-5.28-8.44-8.43-.78-1-1.57-1.54-2.85-1.04-1.33.51-2.75.79-2.82,2.73-.1,2.79-.43,5.54-1.34,8.24-1.9,5.62-5.07,10.26-9.93,13.73-2.15,1.53-4.38,2.9-6.7,4.17-3.49,1.91-6.82,4.12-10.29,6.05-4.17,2.32-8.23,5-13.13,5.55-2.84.32-5.71.32-8.57.45-.65.03-1.31-.17-1.78-.6-1.21-1.09-3.18-.37-4.22-1.82-.06-.08-.31-.07-.46-.04-2.73.62-4.55-1.16-6.41-2.59-2.15-1.64-4.07-3.58-5.83-5.65-.41-.48-.88-.93-1.35-1.36-.55-.52-1.04-.34-1.34.27-.34.72-.64,1.47-.87,2.23-1.46,4.68-4.03,8.68-7.46,12.13-3.28,3.3-7.44,4.78-11.93,5.52-3.15.52-6.15-.55-9.23-.75-2.85-.19-5.69-.66-8.56-.33-.56.06-1.14.03-1.61.38-.85.64-1.82.5-2.77.43-2.87-.2-5.75-.36-8.63-.29-2.16.05-4.05-.81-5.92-1.74-.93-.46-.98-.99-.23-1.61.47-.39.91-.85,1.69-.61,1.18.37,1.47-.42,1.28-1.32-.41-1.94.67-3.27,1.86-4.41,1.27-1.21,2.27-2.68,3.71-3.73.79-.58,1.15-1.44-.13-2.01-.65-.29-.73-.7-.55-1.34.27-.94-.32-1.32-1.12-1.45-.9-.14-1.71.13-1.79,1.11-.19,2.39-2.26,3.54-3.33,5.35-.23.38-.69.47-1.05.22-.41-.28-.21-.71-.08-1.08.24-.69.57-1.33,1.17-1.77,2.17-1.6,2.68-3.97,3.13-6.42-1.01-.25-1.5.34-1.98.82-1.82,1.79-3.63,3.59-5.41,5.42-.72.74-1.51,1.44-1.74,2.53-.15.69-.79.97-1.29,1.36-.83.65-1.44.49-1.88-.46-1.43-3.04-2.49-6.19-3.07-9.52-.83-4.77.22-9.15,2.31-13.39.5-1.02,1.52-1.63,1.89-2.73.15-.44.62-.33,1.02-.16,1.06.43,1.84,0,2.51-.83,1.9-2.36,4.31-3.99,7.08-5.18,1.22-.52,2.25-1.5,3.74-1,.2.07.46-.09.7-.11.73-.07.27-1.38,1.06-1.14.56.17,1.03.61,1.7.74,4.12.78,8.26.4,12.41.38,4.29-.02,8.61-.2,12.83.99,1.26.35,2.33,1.04,3.51,1.51.46.18.93.38,1.26-.18.25-.43-.04-.79-.31-1.06-2.04-2.05-3.77-4.47-6.63-5.56-.21-.08-.38-.29-.26-.78.67-.27,1.4,0,2.13.17,1.71.39,3.31,1.14,5.04,1.49,1.1.22,2.09.63,3.25.2.89-.33,1.69.25,2.45.7,2.75,1.62,4.6,4.15,6.59,6.54.26.31.44.67.69.98.82,1.02,1.28.94,1.8-.32.12-.29.18-.61.27-.92.45-1.59,1.07-2.97,3.12-2.72.13.02.29-.13.43-.2.19-.1.31-.08.38.11.12.83-.55.94-1.14,1.21-1.04.49-1.59,1.66-1.41,2.72.24,1.42,1.43,1.31,2.42,1.47,1.23.2,1.79-.66,2.02-1.61.83-3.47,2.91-6.15,5.24-8.71.95-1.05,2.27-1.8,2.61-3.34.04-.2.27-.46.46-.51,2.77-.8,4.4-3.33,6.94-4.47.51-.23,1.04-.57,1.56-.56,1.15.03,2.04-.25,2.59-1.32,2.16-.18,3.12-2.31,4.78-3.06,2.51-1.14,4.12-3.21,6.17-4.79,1.23-.94,1.12-1.1.16-3.07,3.53-.6,7.07-.83,10.63-.77.81.01,1.58.23,2.35.45.7.2,1.43.44,2.1.04,2.56-1.5,4.61.16,6.69,1.17,1.04.5,1.86,1.46,2.99,1.93.58.24,1.06.82.77,1.55-.24.61-.82.67-1.41.66-1.35-.03-2.51-.55-3.44-1.48-1.07-1.06-2.12-1.54-3.78-1.2-1.48.3-3.19.47-4.66-.51-.45-.3-.92-.17-1.34.13-.46.32-1.03.59-1,1.24.02.53.53.77.93,1.01.85.52,1.81.55,2.77.62,1.86.12,3.61.63,5.25,1.51.35.19.7.47.65.91-.05.53-.54.48-.92.55-1.04.18-1.95.69-2.87,1.16-.45.23-.67.7-.43,1.22.26.57.7.56,1.18.27,1.27-.76,2.95-.63,3.92-2.11.46-.7,1.59-.82,2.43-.73,1.07.12,1.89-.34,2.7-.79.85-.48,1.61-1.03,2.66-.86.63.1,1.14-.22,1.39-.74.72-1.48,2.11-1.84,3.5-2.21.77-.21,1.55-.38,2.31-.63.91-.3,1.46-.84,1.37-1.95-.07-.78.07-1.59.22-2.37.22-1.1.1-2.48,2.03-2.16.79.13.74-.77.44-1.23-.8-1.24-.52-2.01.81-2.53.27-.11.66-.44.65-.65-.1-2.1,1.73-2.93,2.78-4.25.64-.8,1.52-1.38,2.17-2.21.53-.68,1.21-1.28,2.26-.72.6.32,1.23.1,1.82-.23,4.68-2.58,9.71-3.51,15.01-3.19.95.06,2.16.3,2.38-.93.2-1.13-1.03-1.6-1.85-1.89-1.27-.46-2.43-1.23-3.8-1.39-.41-.05-.86-.17-.77-.68.08-.43.54-.57.93-.59,1.11-.05,2.23-.05,3.35-.07.4,0,.88.15,1.18-.02,1.86-1.06,3.61-1.2,5.43.17.47.35,1.13-.1,1.4-.61.62-1.18,1.34-.75,2.17-.29.88.49,1.46,1.13,1.79,2.12.72,2.16,1.41,4.24-.1,6.38-.33.46-.25,1.23-.3,1.86-.06.83-.36,1.55-.8,2.23-.49.77-1.07,1.06-2.01.65-3.95-1.69-8.01-.62-12.02-.33-1.04.07-2.09.78-3.02,1.38-1.75,1.13-3.41,2.38-5.1,3.59-.94.67-1.56,1.61-2.01,2.64-.47,1.09-.11,1.68,1.08,1.79,1.11.11,2.24.08,3.35.2,1.94.21,3.69.89,5.28,2.08,1.48,1.1,2.19,2.44,2.07,4.3-.09,1.38-.37,2.73-1,3.92-1.02,1.92-2.51,3.28-4.89,3.28-1.12,0-2.24.08-3.35.17-.65.05-1.42.24-1.52.94-.12.9.78.78,1.34.96.13.04.23.19.34.3ZM209.61,324.86c.59,1.01.98,1.61,1.3,2.24.39.78.93,1.62.73,2.49-.97,4.11-2.55,7.71-7.91,7.68-1.44,0-2.88.02-4.31.06-.57.02-1.2.12-1.32.77-.12.66.46.96.98,1.19,2.84,1.26,5.85,1.47,8.62.24,3.7-1.65,7.32-3.56,10.72-5.74,3.22-2.07,6.51-4.01,9.76-6,2.4-1.47,4.8-2.86,6.41-5.25.43-.64,1.23-1.34.7-2.13-.63-.94-1.58-.31-2.39-.07-2.45.73-4.86,1.57-7.34,2.19-2.46.62-4.91,1.47-7.52.89-.58-.13-1.08.11-1.58.41-.45.27-.88.77-1.54.31.61-.53,1.24-1.01,1.79-1.57.28-.29.31-.73.14-1.13-.2-.45-.62-.49-1.01-.43-1.14.18-2.44.6-2.76,1.64-.52,1.67-1.61,2.15-3.46,2.21ZM169.2,324.87c-2.7-.27-4.74,2.12-7.51,1.38-.19-.05-.46.1-.67.19-2,.8-3.99,1.58-6.2.76-.28-.1-.63-.02-.95-.03-2.64-.06-5.2.66-7.82.77-.55.02-1.14.12-1.63.35-1.3.6-2.66,1.18-3.13,2.73-.33,1.08.07,1.99,1.03,1.99,2.52,0,5.1.23,6.96-2.2.97-1.27,2.5-1.72,4.12-1.57.1.51-.16.73-.3,1-.84,1.67-.32,2.54,1.56,2.62.4.02.8-.03,1.19-.07,1.9-.16,3.81-.35,5.71-.49,4.46-.33,8.93-.4,13.39-.29.91.02,1.75-.22,2.56-.5,1.28-.44,1.74-1.65,1.16-2.89-.17-.36-.44-.67-.67-.99-.42-.56-.66-1.01.14-1.57.82-.57.46-1.14-.38-1.2-1.03-.08-2.07.06-3.11.05-.82,0-1.46-.24-1.9-1.13-1.61-3.27-2.04-3.35-5.09-1.39-.13.08-.31.09-.45.17-.28.16-.53.37-.44.74.09.34.37.49.69.58.56.15,1.34-.22,1.74.97ZM145.76,340.39c-1.1-.09-2.48-.52-3.08.65-.91,1.78-2.29,3.25-3.13,5.04-.91,1.94-.46,2.63,1.65,2.7,1.11.03,2.31-.31,3.3.27,1.73,1.01,3.56.91,5.35.61,2.28-.39,4.6-.45,6.86-.84,4.19-.72,6.97-3.33,8.6-7.15.71-1.65.16-2.36-1.67-2.37-1.11,0-2.23.07-3.34.14-4.85.34-9.72.27-14.55.96ZM140.24,324.02c-1.43,0-2.87,0-4.3,0-2.81.02-5.24.96-7.47,2.72-3.73,2.94-4.58,6.9-4.35,11.29.05.91.73,1.18,1.52.7.9-.55,1.6-1.32,2.26-2.12,2.29-2.76,4.99-4.62,8.78-4.37.93.06,1.72-.31,2.11-1.25,1.15-2.82,3.53-3.68,6.3-3.95,4.29-.43,8.58-.64,12.89-.78.75-.02,1.86.33,2.03-.69.17-1.01-.93-1.16-1.68-1.31-3.69-.73-7.47-.51-11.19-.65-2.22-.09-4.58.23-6.88.43ZM229.86,309.04c.05.66.53.92,1.12.98.91.09,1.76-.12,2.47-.7.96-.78,2.05-1.17,3.26-1.38,1.33-.22,2.65-.57,3.97-.86,1.19-.26,2.3-.73,3.13-1.64,1.57-1.72,3.46-2.49,5.79-2.11,1.06.18,1.95-.1,2.85-.84,1.79-1.45,3.84-2.22,6.22-1.48.79.25,1.71.27,2.25-.39,1.19-1.48,2.81-1.66,4.49-1.77.41-.03.97-.05,1.03-.43.23-1.43,1.42-1.74,2.41-2.35.82-.5,1.19-1.31.74-2.27-.36-.76-1.21-.81-2.3-.24-.42.22-.74,1.04-1.09.75-1.49-1.23-2.79,0-4.04.31-3.08.79-6.29,1.33-9.14,2.78-1.73.88-3.47,1.53-5.33,2-1.6.41-3.05,1.28-4.51,1.98-1.06.51-2.08,1-3.22,1.35-3.04.93-6.1,1.86-8.65,3.91-.77.62-1.43,1.27-1.47,2.38ZM243.76,315.25c.27,3.6-.71,6.92-2.1,10.2-1.19,2.81-3.05,5.19-5.4,6.87-1.85,1.33-3.39,3.49-6.05,3.52-.4,0-.69.35-.95.67-.94,1.14-2.16,1.87-3.6,2.18-.8.17-1.25.66-1.55,1.35-.2.46-.2.95.22,1.31.34.3.83.32,1.11.05,1.24-1.2,3.01-1.43,4.35-2.45,1.96-1.48,3.74-3.23,6.22-3.9.43-.11.77-.55,1.15-.84,1.63-1.28,3.76-2.02,4.55-4.24.1-.28.64-.43,1-.59,1.95-.85,2.77-2.51,3.1-4.46.42-2.48.49-5.04,1.93-7.24.13-.19.25-.46.22-.67-.28-1.96.45-3.94-.25-5.91-.53-1.49-.81-1.91-2.03-1.77-1.48.17-2.17.89-2.13,2.33.03,1.2.15,2.39.23,3.59ZM206.71,323.91c.4.12.86.18,1.04-.25.17-.39-.13-.74-.34-1.09-.53-.86-1.58-1.41-1.59-2.59-.01-1.75-.08-3.5.75-5.15.4-.8,1.38-1.82.55-2.58-.72-.66-1.79.12-2.58.59-3.08,1.82-6.14,3.69-9.01,5.83-1.08.81-2.04,1.79-2.66,3.03-.82,1.65-.38,2.39,1.45,2.37.32,0,.64-.1.95-.08,3.81.25,7.62-.62,11.43-.08ZM202.68,330.07c-.81-.18-1.43-.34-2.04-.46-.49-.1-.81-.32-1.08-.79-1.06-1.81-2.19-2.22-4.07-1.39-1.71.76-3.6.96-5.31.9-1.41-.05-2.26-.01-3.24,1.06-1.25,1.37-1.38,1.28.45,2.07.64.28.93.5.42,1.18-.48.64-.01,1.02.55,1.27.98.43,1.98.43,3.04.28,1.49-.21,3.24-.77,4.45-.23,2.08.94,3.89.13,5.82.02.51-.03.97-.18,1.18-.66.27-.61,0-1.13-.52-1.42-1.47-.81.03-1.1.37-1.83ZM261.14,304.01c-.93.04-1.36.59-1.27,1.41.13,1.2.69,2.24,1.3,3.29,2.14,3.7,5.58,6.06,8.75,8.69,1.16.96,2.48,1.74,3.68,2.65.89.67,1.46.34,1.93-.47.68-1.17.32-2.24-1.22-3.1-2.45-1.38-4.43-3.35-6.62-5.04-.94-.73-1.7-1.58-2.04-2.85-.33-1.22-1.24-2.22-2.1-3.15-.63-.69-1.44-1.25-2.4-1.44ZM151.85,355.43c1.52.02,3.02-.14,4.42-.78.54-.25.96-.66.79-1.31-.16-.62-.68-.84-1.3-.82-.95.03-1.87.32-2.85.11-1.94-.42-3.91-.75-5.85-1.18-1.62-.35-3.05-.19-4.58.63-1.31.7-2.22,2.12-3.89,2.18-.36.01-.51.38-.48.71.03.36.31.53.66.55,1.35.09,2.7.17,4.05.24,3.02.16,6.02-.07,9.03-.34ZM226.35,302.65c-1.91.91-4.84.68-5.84,3.71-.14.42-.48.61-.94.43-.48-.18-.95-.27-1.2.33-.22.55.13.88.5,1.22.28.27.62.56.73.91.38,1.15,1.21,1.27,2.09.87,2.28-1.01,5.55-.8,5.68-4.54,0-.26.38-.5.54-.77.76-1.26.26-2.14-1.56-2.17ZM188.24,338.21c-.12.49-.23.66-.19.78.07.22.19.44.34.63,3.3,4.28,7.43,7.09,13.01,7.31.83.03,2.06.41,2.23-.69.14-.96-1.14-.96-1.85-1.12-5.06-1.12-9.62-3.19-13.54-6.91ZM115.26,339.44c-.04.78-.12,1.62-.11,2.46.01.9.17,1.96,1.25,2,1.09.04.4-1.17.78-1.7.03-.05.12-.05.29-.12.47.57.91,1.23,1.47,1.76.57.54,1.33.48,1.52-.29.28-1.14.63-2.32.43-3.52-.2-1.21-1.83-3-2.61-2.82-1.65.39-1.07,1.89-1.34,2.95-.76.23-.76-1.03-1.68-.73ZM214.31,347.3c.17-.05.32-.08.47-.13,2.92-1.04,5.5-2.74,8.13-4.33.55-.33.94-.98.31-1.61-.56-.55-1.13-.73-1.86-.07-1.95,1.77-3.92,3.63-6.84,1.78-.3-.19-.62-.12-.91.04-.36.21-.76.64-.38.93.95.73.57,1.43.26,2.28-.22.6.11,1.08.82,1.11ZM172.08,343.59c.1.44.14.84.28,1.2.11.28.34.54.7.55.39.01.5-.27.63-.58.77-1.76,1.02-3.64,1.32-5.51.1-.63-.16-1.13-.8-1.24-.55-.1-.9.29-1.02.78-.4,1.61-.75,3.22-1.11,4.8ZM202.54,307.62c-3.34.93-5.66,2.94-8.18,5.07,2.69.19,6.88-2.4,8.18-5.07ZM120.01,335.76c.12-1.32-.59-2.91-1.16-2.98-.69-.09-1.82,1.13-1.98,2.12-.14.88.74,2.06,1.58,2,.86-.06,1.48-.51,1.56-1.14ZM173.16,348.26c-.37-.52-.67-1.32-1.39-1.66-.75-.35-1.11.35-1.43.88-.29.47-.5.98-.75,1.47-.26.51-.07.91.3,1.26.41.39.89.39,1.27.04.53-.47.99-1,1.68-1.25.23-.09.33-.31.32-.73ZM255.31,292.38c2.01.1,3.55-.46,5.04.17.2.09.59-.16.83-.33.17-.12.32-.36.35-.57.06-.38-.27-.62-.56-.61-1.78.11-3.66-.14-5.67,1.33ZM115,333.92c-.55.06-1.8,1.61-1.65,2.13.14.5.55.76,1.09.71.9-.09,1.8-1.21,1.59-2.03-.13-.5-.5-.79-1.04-.82ZM184.23,325.26c.73.6,1.44.87,2.18,1.07.66.18,1.35.16,1.49-.65.14-.81-.58-1.07-1.19-1.17-.84-.13-1.65.04-2.47.75ZM187.56,319.11c-1.28.36-1.47,1.45-1.86,2.36-.16.38-.11.84.29,1.05.41.22.78-.05,1.02-.38.65-.89.75-1.88.54-3.03ZM289.93,271.9c-.17-.44.14-1.34-.83-1.29-.67.03-.74.72-.77,1.28-.04.67.13,1.45.81,1.51.9.08.66-.83.79-1.5ZM216.26,309.51c-.06-.54-.45-.65-.85-.68-.54-.04-.95.2-.96.79,0,.47.34.71.78.67.49-.04.9-.25,1.02-.77ZM194.42,325.8c-.12-.6-.49-.82-1.02-.72-.32.06-.58.3-.54.66.05.52.34.9.9.85.43-.04.65-.38.66-.79ZM165.8,316.31c-.05-.33-.18-.59-.56-.63-.51-.06-.74.25-.75.67,0,.27.05.65.49.66.48.01.66-.33.82-.7ZM273.04,291.7c.23-.1.47-.16.42-.46-.09-.52-.41-.79-.92-.77-.23.01-.41.2-.38.47.05.55.38.77.89.76ZM286.84,272.63c-.03-.36-.3-.55-.59-.56-.25-.01-.66.01-.54.48.08.33.36.44.68.45.26,0,.4-.12.45-.36Z"/>
  <path d="M607.48,276.61c-.63.15-.91-.2-1.13-.48-1.55-2.01-3.78-2.85-6.06-3.64-1.32-.46-2.65-.56-4.02-.38-6.16.82-12.32,1.65-18.48,2.46-1.05.14-2.07.88-3.24.26.41-1.04,1.38-.63,2.06-.9.2-.08.41-.25.5-.44.18-.36-.11-.6-.37-.78-.56-.4-1.19-.41-1.83-.19-.98.34-1.96.66-2.93,1.01-.3.11-.73.45-.85.36-1.98-1.56-3.01.79-4.53,1.08-.61.12-.83.68-1.06,1.2-.56,1.28-1.91,1.91-2.58,3.12-.16.29-.51.29-.83.35-1.97.35-1.99.37-2.1,2.34-.03.58-.07,1.12-.44,1.58-1.9,2.34-3.19,5.19-5.81,6.93-.32.21-.58.55-.81.87-.24.33-.4.75-.01,1.07.29.23.6,0,.85-.18,3.07-2.37,6.18-4.67,9.02-7.36,2.44-2.31,5.47-3.89,9.03-3.9.65,0,1.27-.06,1.87-.35,1.17-.56,2.44-.66,3.72-.77,3.07-.27,6.13-.6,9.12-1.44,3.32-.93,6.75-1.27,10.17-1.17,3.28.09,6.19,1.42,8.58,3.75q1.31,1.28,2.55.17c1.44-1.28,1.88-1.24,2.39.64,1.26,4.6,1.92,9.21-.27,13.78-.97,2.02-1.66,4.15-2.19,6.33-.24.98-.57,1.46-1.81,1.17-1.52-.36-2.76-.67-3.35-2.41-.46-1.37-1.89-1.86-3.24-2.21-1.31-.33-2.68-.52-3.9-1.14-.64-.32-1.21-.47-1.7.17-.57.73-1.04,1.59-.31,2.38,1.09,1.19,1.57,3.04,3.54,3.31.3.04.51.37.42.76-.3.41-.71.11-1.07.16-1.26.16-1.52.51-1.27,1.7.1.46.31.91.38,1.37.11.76-.83,1.46-.18,2.27.54.67,1.47.12,2,.53,1.28.98,2.81,1.06,4.27,1.42.32.08.61.19.62.59-3.2,0-3.3-.16-6.34,1.78-2.72,1.73-5.73,1.88-8.71,2.2-2.11.23-4.22,1.06-6.39.39-1.89,1.3-4.19.81-6.23,1.1-2.15.3-4.17,1.53-6.44,1.06-.47-.1-.97.06-1.36.36-.9.67-1.95.82-2.97.64-1.19-.22-2.26.95-3.18.48-.92-.46-1.43-1.66-2.23-2.42-.98-.93-2.22-1.55-2.89-2.82-.69-1.3-.68-1.63.57-2.28.98-.51,1.98-.95,3.12-2.02-1.05,0-1.76-.15-2.36.03-1.2.37-2.19.48-3.32-.4-.89-.69-2.52-.08-2.96,1.06-.34.9-.92,1.19-1.7,1.45-2.64.89-5.28,1.79-7.91,2.71-2.11.74-4.21,1.5-6.31,2.26-.9.33-1.51.79-1.15,1.95.31.98-.17,1.89-.67,2.71-2.16,3.52-5.08,6.35-8.23,8.95-1.06.88-2.42,1.22-3.68,1.7-5.74,2.19-11.49,4.35-17.25,6.51-2.57.96-5.22,1.35-7.95.83-.55-.1-1.23-.2-1.31-.83-.1-.73.64-.82,1.14-.99.98-.33,1.99-.59,2.99-.87.86-.24,1.66-.59,2.34-1.16.46-.39.79-.86.47-1.46-.36-.67-1-.81-1.64-.47-.7.37-1.34.86-2.02,1.28-.34.21-.69.41-1.06.53-.31.1-.62-.02-.76-.38-.1-.28.06-.5.26-.59,1.57-.65,2.75-1.91,4.26-2.64.29-.14.6-.25.85-.43.86-.62,1.68-1.36,1.37-2.54-.29-1.09-1.32-.89-2.18-1.05-1.98-.38-3.78.43-5.65.72-.47.07-1.02.43-1.37.09-2.09-2-4.18-.05-6.26-.05-.37,0-.78.21-1.12.4-1.03.58-1.97.47-2.89-.26-.67-.53-1.5-.84-2.21-.28-1.57,1.24-3.32,1.28-5.15,1.02-.6-.08-1.16-.01-1.52.47-.79,1.05-1.65,1.15-2.67.37-.85-.66-1.93-.6-2.77-.36-1.43.41-3.01-.75-4.31.56-.29.29-.7-.22-1.06-.35-1.5-.54-2.98-.63-4.25.49-.75.66-1.48.85-2.41.56-.46-.15-.96-.08-1.4.15-.43.22-.86.48-.92,1.02-.06.59.38.83.82,1.04.53.26,1.48.13,1.42.97-.05.77-1,.63-1.53.94-1.88,1.1-4.01.93-6.06,1.15-1.44.16-3.14-.3-3.56,1.87-.08.44-.61.31-1.02.19-1.09-.33-2.18-.26-3.43.16.56,1.27,1.49,1.63,2.67,1.61,1.13-.02,2.59-.09,2.88,1.12.31,1.27-1.19,1.73-2.12,2.24-3.17,1.76-6.58,1.85-10.01,1.04-2.08-.5-4.26-.66-6.24-1.58-.82-.38-1.59-.31-2.04.58-.47.93-.03,2.56.88,2.64,2.43.22,4.45,2.1,7.15,1.4,1.37-.35,3.06-.08,4.4.68,1.04.59,1.71.35,2.57-.29,1.03-.77,2.23-1.25,3.57-1.22,1.05.03,1.8-.4,2.43-1.24,1-1.34,2.49-2.23,3.41-3.68.49-.78,1.37-.74,2.17-.66,1.12.11,1.4.63.77,1.58-1.11,1.67-2.37,3.21-3.96,4.46-.25.2-.5.46-.79.53-3.56.86-6.74,2.82-10.36,3.56-1.75.36-3.48.25-5.12-.16-1.16-.29-1.99-.28-2.82.51-.56.53-1.29.8-1.99.62-1.78-.46-3.61-.55-5.4-.89-1.78-.33-2.76-1.49-3.13-3.22-.08-.39-.11-.8-.23-1.17-.42-1.36-1.2-2.69-.49-4.15.99-2.03,2.37-3.79,3.96-5.37.54-.53,1.29-.53,2.04-.38,1.72.33,3.51.21,5.17.87.57.23,1.12.21,1.53-.27.51-.6-.05-1.03-.33-1.47-.43-.67-.92-1.28-1.54-1.82-1.81-1.56-2.48-3.47-1.51-5.77.34-.81.69-1.61,1.06-2.41.42-.92,1.04-1.58,2.12-1.71.91-.11,1.72-.52,2.18-1.33.96-1.66,2.57-2.35,4.24-2.93,1.2-.42,2.44-.77,3.68-1.08,2.19-.55,3.32-2.39,2.65-4.58-.49-1.6-1.1-3.17-1.66-4.75-.27-.75-.73-1.48-.79-2.25-.12-1.51.06-3.02-1.92-3.55-.54-.14-.34-1-.51-1.52-.51-1.61-1.31-2.77-3.25-3.04-2.73-.38-3.98-2.72-3.07-5.23.65-1.8,1.13-3.68,3.03-4.68.31-.16.47-.63.69-.96,1.5-2.35,4.2-3,6.29-1.12,5.44,4.89,10.38,10.22,12.59,17.47,1.07,3.51,2.55,6.89,3.3,10.5.26,1.26.99,1.61,2.33,1.51,4.05-.31,8.1-.66,12.16-.87,1.3-.07,2.11-.57,2.6-1.7,2.32-5.33,6.19-9.44,10.39-13.29,1.12-1.03,2.43-1.82,3.84-2.42,8.38-3.58,16.93-6.66,25.67-9.22,5.01-1.46,9.5-.21,13.63,2.55,1.49.99,2.7,1.28,4.41.67,3.15-1.12,6.39-2.05,9.62-2.93,1.29-.35,2.2-1.01,3.18-1.9,1.9-1.72,2.93-3.93,4.25-6,3.08-4.83,7.58-7.94,12.92-9.82,2.25-.79,4.55-1.4,6.99-1.51,1.73-.08,3.41-.66,5.13-.95,2.43-.4,4.89-.73,7.32-1.04,3.46-.44,6.93-1.38,10.44-.98,4.53.52,8.68,2.08,11.9,5.51.67.71,1.41,1.46,1.5,2.56ZM483.17,319.86c-.02.24-.05.56-.08.88-.04.49-.05,1,.48,1.23.62.28,1.09-.08,1.46-.52.31-.36.61-.75.82-1.17.73-1.45,1.72-2.68,2.9-3.79.53-.5.93-1.07,1.28-1.72,2.13-3.88,5.28-6.5,9.52-7.88,2.49-.81,4.91-1.84,7.34-2.84,1.23-.5,2.11-2,3.78-1.24.2.09.73-.12.84-.34.71-1.3,2.16-1.39,3.2-2.1,2.09-1.43,4.52-1.59,6.78-2.02,2.47-.48,5.12-1.3,7.73,0,.71.35,1.72.19,2.57.45.39.12.84.11,1.09-.25.35-.51.02-.94-.35-1.24-1.5-1.19-3.1-2.23-4.96-2.81-3.27-1.01-6.47-.67-9.65.39-1.29.43-2.56.83-3.95.19-.96-.44-1.83-.13-2.51.78-1.1,1.48-2.7,2.11-4.45,2.35-.81.11-1.59.21-2.24.72-.54.42-1.16.5-1.81.47-1.23-.06-2.38-.03-3.12,1.24-.33.56-1,.38-1.55.28-1.28-.24-2.2.22-2.7,1.42-.28.67-.7,1.09-1.46.87-1.66-.48-2.54.55-3.31,1.72-.4.61-.71,1.26-1.56,1.33-1.98.18-2.74,1.71-2.97,3.28-.24,1.63-.96,3.03-1.46,4.53-.63,1.87-1.85,3.58-1.65,5.76ZM501.95,312.34c.11-1.95-.17-2.49-1.41-2.22-3.62.79-6.74,2.47-8.9,5.59-.6.87-.35,1.44.67,1.84.37.15.76.27,1.15.31,2.72.28,5.27,1.22,7.83,2.09,4.29,1.46,6.64,5.78,5.5,10.23-.16.62-.45,1.31.15,1.78.48.37,1.08.07,1.6-.14,3.04-1.2,6.09-2.38,9.11-3.63,2.25-.93,4.11-2.43,5.74-4.22.53-.59,1.17-1.22.86-2.09-.34-.93-1.25-.82-2.05-.84-1.28-.04-2.57.33-3.8.25-3.56-.25-7.17-.42-10.6-1.52-2.85-.92-4.48-3.18-5.69-5.78-.24-.53-.22-1.09-.17-1.65ZM537.69,307.92c-1.91.5-3.95.41-5.74,1.39-.75.41-1.17,1.09-.37,1.68.94.69,1.44,1.33,1.02,2.54-.15.42.32.69.76.69.48,0,.99.05,1.42-.1.97-.34,1.82-.61,2.37.64.22.5.8.53,1.27.32.79-.37,1.86-.62,2.27-1.26,1.01-1.61,2.76-1.77,4.2-2.37,7.13-2.96,14.76-4.43,22-7.09,2.02-.74,3.64-1.89,5.34-3.02.74-.49,1.37-1.23.92-2.22-.44-.99-1.4-1.31-2.39-1.28-.97.03-1.82.55-2.65,1.04-.83.49-1.84,1.25-2.65.83-1.83-.93-3.02,0-4.26.99-.62.49-1.15.55-1.95.38-1.22-.26-2.53-.16-3.26,1.2-.16.3-.41.46-.72.57-2.45.79-5.13.84-7.36,2.33-.17.12-.52.15-.69.06-1.67-.88-2.89.22-4.19.93-1.67.91-3.39,1.7-5.34,1.76ZM597.89,288.7c.41-3.99-3.14-6.94-6.45-6.79-2.57.12-5.06.63-7.59.92-4.66.53-9.28,1.41-13.91,2.19-1.58.27-3.1.78-4.36,1.85-.31.26-.59.58-.41,1.02.17.44.59.58.98.51,2.51-.44,4.48.62,6.37,2.11,1.14.89,1.85.91,2.66-.24,1.64-2.34,3.85-2.41,6.19-1.77,3.15.86,6.34,1.65,9.38,2.87,1.41.57,2.83,1.1,4.27,1.56,1.64.52,2.24.17,2.56-1.45.19-.93.41-1.88.3-2.78ZM453.88,306.24c-.03-2.27-3.04-8.29-4.66-9.73-1.83-1.63-3.89-3.02-5.22-5.18-.56-.92-1.28-.84-1.88.03-1.85,2.66-1.63,4.89.98,6.82,2.09,1.54,3.26,3.88,5.23,5.51.71.59.99,1.6,1.35,2.5.66,1.64.77,3.4,1.29,5.05.84,2.64,2.86,4.75,3.53,7.5.2.83.93.85,1.46.24.92-1.07,1.42-2.39.99-3.75-.58-1.82-1.38-3.57-2.17-5.31-.56-1.25-2.04-2.24-.91-3.67ZM583.29,313.15c-.7-.89-1.49-.93-2.3-.94-1.19-.02-2.41-.28-3.55-.2-2.14.14-4.27-.31-6.39,0-2.97.44-5.92,1.24-8.94.25-.36-.12-.79-.07-1.19-.03-.53.05-1.19-.05-1.4.63-.21.65.22,1.09.71,1.37,2.51,1.45,5.1,2.58,8.12,2.01,2.89-.55,5.94-.07,8.71-1.44.45-.22,1.11,0,1.65-.08,1.55-.21,3.15-.3,4.58-1.57ZM523.83,319.79c1.2,0,2.4-.08,3.59.02,1.58.14,2.53-.48,3.15-1.94.64-1.49.44-2.23-1.11-2.59-1.32-.31-2.64-.4-4,.01-2.21.67-4.46,1.19-6.7,1.75-.62.15-1.36.16-1.47.96-.12.91.7,1.17,1.31,1.49.57.3,1.23.31,1.87.31,1.12,0,2.24,0,3.35,0ZM570.77,306.27c3.4.25,6.66-.23,9.85-1.13.8-.22.66-.89.16-1.28-1.21-.91-2.54-1.65-4.01-2.06-.74-.21-1.4.11-1.93.68-1.23,1.34-2.62,2.51-4.07,3.78ZM461.66,326.15c1.09-.5,2.49-.13,3.81-.44.79-.19,1.59-.48,1.54-1.52-.05-.93-1.31-1.96-2.21-1.62-1.02.38-1.86.23-2.74-.19-.75-.35-1.43-.25-1.89.45-.5.77-.64,1.66-.31,2.52.26.67.91.84,1.81.81ZM433.33,329.32c-.02-.88-1.04-2.01-1.81-1.96-.79.05-1.34.49-1.36,1.34-.02.76,1.1,1.73,1.98,1.72.73,0,1.16-.4,1.18-1.1ZM504.99,310.61c.6,1.19,1.64,1.4,2.6,1.7.37.12.83.11,1.02-.32.21-.48.06-.95-.38-1.24-.98-.65-2-.88-3.25-.13ZM503.91,333.52c-.04-.49-.16-.97-.8-.92-.67.05-.95.61-1.03,1.14-.08.5.26.96.83.93.65-.03.94-.51,1-1.15ZM563.2,309.09q1.57,0,2.29-1.23c-1.01.02-1.83.17-2.29,1.23ZM583.08,272.27c-.42-.73-.97-.53-1.52-.19-.17.11-.19.24-.06.39.47.53.95.28,1.41-.01.06-.04.1-.11.17-.18ZM609.36,292.03c-.13-.34-.41-.6-.84-.52-.41.08-.71.37-.55.83.15.44.54.49.94.4.34-.07.52-.29.45-.71ZM447.17,306.78c-.2-.1-.31-.05-.36.17-.12.55.1.92.63,1.07.11.03.38-.08.4-.16.11-.55-.23-.85-.67-1.08Z"/>
  <path d="M460.07,338.28c2.82-.89,5.61-1.76,8.56-1.79,4.23-.04,8.43-.57,12.64-.94,2.77-.25,5.58-.04,8.35-.54.56-.1,1.16-.02,1.47.56.31.59.89.86,1.51,1.33-1.03.91-2.13,1.22-3.26,1.55-1.69.5-1.77.94-.49,2.23.98.99,2.1,1.77,3.56,1.72.97-.03,1.72.07,1.96,1.22.13.6.72,1.1,1.24.62,1.37-1.22,2.79-.39,4.09-.14,2.36.44,4.55.17,6.75-.69,5.28-2.06,10.55-4.12,15.86-6.09,1.38-.51,2.61-1.25,3.74-2.11,2.12-1.63,4.15-3.4,6.21-5.1,2.33-1.93,3.27-4.65,4.2-7.37.41-1.2.96-2.37,1.05-3.68.04-.61.33-1.17,1.04-1.01.66.15.76.7.6,1.33-1.62,6.35-4.57,11.91-9.7,16.16-.55.45-1.16.88-1.81,1.15-5.81,2.44-11.63,4.84-17.46,7.24-.75.31-1.41.7-2.07,1.17-1.88,1.35-3.89,2.42-6.34,2.19-1.18-.11-2.24.33-3.04,1.16-.85.9-1.72,1-2.81.57-.81-.32-1.69-.48-2.51-.78-.59-.22-1.15-.26-1.54.22-.93,1.14-1.95.65-3.05.37-3.18-.82-5.8-2.45-7.96-5.08,1.36-.38,2.18-.07,2.83.98,1.14,1.85,3,2.54,5.03,2.88.36.06.62-.05.82-.33.24-.34,0-.63-.18-.85-.25-.3-.56-.58-.89-.8-1.68-1.09-2.81-2.62-3.39-4.51-.47-1.53-1.49-1.83-2.93-1.84-1.53,0-2.92.74-4.49.58-.99-.1-2.01.37-3.02-.16-.41-.21-.98-.1-1.37.22-1.2.98-2.83.31-4.09,1.1-.35.22-.75-.04-1.09-.29-.31-.23-.69-.59-1.02-.56-1.21.1-2.47.58-3.31-.8-1.44.53-2.45-.64-3.68-1.1Z"/>
  <path d="M447.92,452.54c-2,0-4-.01-5.99,0-.88,0-1.32-.33-1.31-1.27.02-3.52.03-7.03,0-10.55,0-.97.46-1.23,1.33-1.23,3.84.02,7.67-.08,11.51.05,2.83.1,4.17,1.55,4.35,4.4.09,1.51.09,3.04,0,4.55-.14,2.52-1.37,3.82-3.89,3.97-1.99.12-3.99.02-5.99.02,0,.01,0,.03,0,.04ZM448.79,449.13c1.03,0,2.07.04,3.1,0,1.52-.07,1.96-.49,2.11-2,.06-.63.06-1.27,0-1.91-.14-1.7-.68-2.26-2.38-2.33-1.75-.07-3.5-.04-5.25-.01-1.85.02-1.85.04-1.91,1.84q-.16,4.42,4.33,4.41Z"/>
  <path d="M353.8,452.59c-1.52,0-3.04.02-4.56,0-2.29-.04-3.38-.94-3.82-3.15-.47-2.38-.51-4.76.08-7.12.34-1.38,1.23-2.25,2.65-2.43,3.82-.49,7.65-.63,11.46-.06,1.89.28,2.85,1.32,3.01,3.19.17,1.91.28,3.83.05,5.75-.31,2.55-1.51,3.66-4.07,3.79-.16,0-.32,0-.48,0-1.44,0-2.88,0-4.32,0,0,.01,0,.03,0,.04ZM354.04,449.13c.71,0,1.43.01,2.14,0,2.16-.04,2.59-.47,2.67-2.67.02-.4.02-.79,0-1.19-.09-1.71-.6-2.28-2.29-2.38-1.42-.08-2.85-.03-4.28-.02-2.77,0-3.12.34-3.26,3.1-.02.39,0,.79.06,1.18.23,1.57.57,1.9,2.11,1.97.95.04,1.9,0,2.85.01Z"/>
  <path d="M407.43,447.57c2.06.74,2.15,2.25,2.18,3.81.02.81-.35,1.18-1.14,1.16-.72-.02-1.47.1-2.14-.09-.86-.25-.64-1.18-.76-1.85-.19-1.04-.91-1.2-1.76-1.21-1.59-.02-3.19.03-4.78-.02-1.18-.04-1.7.34-1.71,1.64-.02,1.6-.14,1.55-2.12,1.57-1.14,0-1.77-.21-1.73-1.57.08-3.35.07-6.7,0-10.04-.02-1.21.51-1.47,1.58-1.46,3.51.04,7.01-.04,10.52.04,2.48.05,3.34.69,3.82,2.47.68,2.5.18,4.04-1.99,5.57ZM401.27,446.01c.8,0,1.59,0,2.39,0,.08,0,.16,0,.24,0,1.31-.1,2-.65,1.9-1.61-.11-1.02-.72-1.54-1.77-1.53-1.83.01-3.66.02-5.5,0-.79,0-1.12.31-1.17,1.12-.11,1.68.09,1.96,1.75,2.02.72.03,1.43,0,2.15,0Z"/>
  <path d="M219.48,447.47c.68.72,1.7,1.04,1.89,2.3.38,2.53.01,3.01-2.49,2.78-.94-.09-1.24-.54-1.27-1.35-.04-1.46-.9-1.87-2.22-1.83-1.52.05-3.04.04-4.55,0-1.08-.03-1.66.31-1.58,1.51.04.52.23,1.31-.39,1.5-.99.3-2.07.29-3.07-.03-.4-.13-.37-.66-.37-1.06,0-3.52.01-7.03-.01-10.55,0-.95.42-1.24,1.31-1.24,3.6.02,7.19-.05,10.79.03,2.38.05,3.29.7,3.75,2.29.73,2.5.18,4.25-1.78,5.64ZM213.5,445.99s0,0,0,0c.88,0,1.76,0,2.64,0,.95,0,1.54-.51,1.57-1.44.03-1.02-.52-1.66-1.6-1.68-1.92-.02-3.83,0-5.75-.01-1.06-.01-1.09.67-1.08,1.44.01.8-.11,1.68,1.11,1.69,1.04,0,2.08,0,3.11,0Z"/>
  <path d="M496.4,452.54c-1.72,0-3.16.01-4.59,0-.9-.01-1.75-.2-2.46-.79-.88-.73-1.3-2.7-.7-3.24.59-.53,3.13-.53,3.52.18.54.99,1.34,1.03,2.22,1.04,1.36.02,2.72.04,4.08,0,.82-.03,1.96.25,2.02-1.06.06-1.32-1.07-1.15-1.91-1.19-1.91-.09-3.83-.14-5.74-.2-.16,0-.32,0-.48,0-3.32-.16-4.4-1.51-3.83-4.79.28-1.62,1-2.39,2.62-2.67,3.09-.52,6.22-.42,9.32-.21,2.43.16,3.39,1.13,3.51,2.85.06.88-.2,1.41-1.17,1.32-1.05-.09-2.29.42-2.97-.92-.09-.18-.37-.35-.57-.38-1.99-.25-3.98-.37-5.97-.04-.53.09-.85.43-.89.97-.04.56.29.94.77,1.06.53.14,1.1.16,1.65.17,2,.02,4-.05,5.99.03,2.59.11,3.53,1.16,3.59,3.78.06,2.75-.87,3.87-3.5,4.14-.79.08-1.6.09-2.39.08-.8,0-1.59-.08-2.11-.11Z"/>
  <path d="M259.76,452.55c-1.83,0-3.67-.04-5.5.02-1.08.03-1.6-.28-1.58-1.47.06-3.43.03-6.86.02-10.29,0-.86.29-1.31,1.25-1.3,3.91.03,7.82.04,11.73,0,1.2-.01,1.2.68,1.24,1.54.06,1.05-.39,1.38-1.4,1.36-2.47-.05-4.95-.02-7.42,0-.47,0-1.05-.14-1.31.34-.17.31-.14.79-.04,1.16.13.46.61.43.99.43,2.39.01,4.79.04,7.18,0,.98-.02,1.44.26,1.46,1.34.01,1.09-.26,1.59-1.47,1.55-2.31-.08-4.63,0-6.94-.03-.84,0-1.33.18-1.35,1.17-.02,1.04.38,1.42,1.39,1.4,2.55-.03,5.11.02,7.66-.01,1-.01,1.44.37,1.45,1.4.02,1.02-.35,1.45-1.38,1.43-1.99-.04-3.99-.01-5.98-.01Z"/>
  <path d="M306.25,452.42c-1.44,0-2.89.12-4.31-.03-2.51-.26-3.55-1.36-3.83-3.8-.2-1.75-.17-3.52.03-5.26.23-2.03,1.18-3.12,3.1-3.42,3.32-.52,6.67-.63,10.01-.11.24.04.48.07.71.13,1.51.41,2.64,2.16,2.22,3.45-.21.64-2.56,1.1-3.48.42-2.33-1.74-4.96-.56-7.41-.97-.07-.01-.16.02-.23.05-1.87.92-1,2.65-1.14,4.05-.11,1.15.33,2.11,1.67,2.16,1.83.07,3.67.02,5.51.02.63,0,1.1-.31,1.3-.87.22-.6.54-1,1.2-.92.9.11,2-.48,2.64.49.62.94-.14,3.19-1.19,3.84-.76.47-1.62.67-2.5.76-.4.04-.8.08-1.19.09-1.04.01-2.08,0-3.11,0,0-.03,0-.05,0-.08Z"/>
  <path d="M268.25,268.77c-2.19,2.27-5.2,2.85-7.55,5.09.55-2.05,3.53-3.95,7.55-5.09Z"/>
  <path d="M186.91,308.12c1.55-1.78,3.55-2.99,5.62-4.36-.8,1.91-3.07,3.74-5.62,4.36Z"/>
  <path d="M484.68,353.14c.8.12,1.21.67,1.28,1.45.07.79-.44,1.22-1.17,1.2-.82-.02-1.38-.55-1.37-1.37.01-.68.5-1.14,1.26-1.28Z"/>
  <path d="M147.73,311.39c-2.82,1.03-5.13.38-7.43-.05,1.21-.61,2.45.4,3.56-.01,1.18-.44,2.23-.37,3.87.07Z"/>
  <path d="M121.79,353.1c-1.4-.18-2.43.26-3.66.48.04-1.27.82-1.98,1.6-2.2.74-.21,1.37.61,2.06,1.72Z"/>
  <path d="M598.59,305.73c.2,1.01.28,1.84.75,2.55.18.28.16.64-.19.79-.34.15-.64-.08-.8-.35-.54-.93-.79-1.87.24-2.99Z"/>
  <path d="M118.72,357.26c-.47-.43-1.15-.78-.99-1.47.12-.48.72-.53,1.2-.43.37.08.83.18.75.7-.09.55-.39,1-.96,1.2Z"/>
  <path d="M430.8,308.95c-.17.57-.24,1.27-1.01,1.4-.46.08-.74-.28-.74-.71-.01-.69.31-1.26,1-1.43.44-.11.67.29.75.74Z"/>
  <path d="M479.34,348.2c-.07.75-.47,1.03-1.08,1.05-.44.01-.78-.23-.82-.65-.05-.62.33-1.03.93-1.11.55-.07.79.34.96.71Z"/>
  <path d="M134.66,311.49c.8-.54,1.62-.72,2.44-.29.2.11.19.47,0,.61-.86.58-1.63-.11-2.44-.32Z"/>
  <path d="M199.95,299.83c-1.05,1.19-1.77,1.91-3.22,2,.7-1.23,1.46-1.86,3.22-2Z"/>
  <path d="M309.89,265.75c.56.17,1.23.29,1.22,1.11,0,.36-.35.51-.68.48-.67-.06-1.24-.32-1.25-1.1,0-.36.34-.47.71-.49Z"/>
  <path d="M288.46,326.31c-.04.45-.13.86-.62.83-.42-.02-.7-.36-.67-.78.03-.47.23-.94.81-.89.53.04.42.53.48.84Z"/>
  <path d="M464.56,300.15c-.46-.11-.63-.44-.62-.87.01-.43.19-.81.68-.75.42.05.73.33.66.81-.05.42-.29.72-.73.82Z"/>
  <path d="M462.27,307.85c-.13.41-.39.7-.83.63-.43-.07-.66-.41-.59-.84.07-.42.34-.72.81-.63.42.08.63.4.62.84Z"/>
  <path d="M295.28,344.22c.36.14.73.27.69.77-.03.42-.39.47-.67.46-.39-.01-.76-.18-.68-.7.05-.37.36-.45.66-.53Z"/>
  <path d="M476.96,305.9c-.05.31-.1.62-.52.62-.46,0-.74-.29-.8-.69-.05-.31.14-.61.53-.62.47-.02.66.31.79.69Z"/>
  <path d="M603.98,308.13c.33-.08.56.03.54.28-.05.5-.42.79-.88.94-.29.09-.46-.09-.46-.32,0-.55.42-.76.8-.89Z"/>
  <path d="M496.08,290.03c-.07.31-.21.62-.56.63-.45.01-.67-.31-.66-.73.01-.36.29-.55.61-.52.32.04.5.32.6.62Z"/>
  <path d="M431.03,241.28c.33.17.72.37.57.85-.05.15-.39.34-.54.3-.41-.09-.71-.37-.59-.86.06-.25.27-.35.57-.3Z"/>
  <path d="M185.05,310.45c.14.07.39.17.38.21-.11.45-.25.9-.78,1.02-.08.02-.28-.14-.29-.22-.02-.5.16-.88.69-1.01Z"/>
  <path d="M307.6,324.37c-1.3.1-1.89-.51-2.07-1.77-.55-3.71-1.18-7.41-1.76-11.11-.36-2.29-.73-4.57-1.02-6.87-.3-2.37-.09-2.64,2.2-3.03,2.04-.35,4.1-.63,6.15-.95.87-.14,1.72-.22,1.76-1.48.02-.75.5-1.38,1.42-1.27.8.1,1.42.63,1.36,1.41-.07.94.45,1.42.94,2.06,1.43,1.85.76,4.05-1.5,4.73-1.52.45-3.13.57-4.7.87-1.88.37-2.1.63-1.85,2.58.27,2.14.61,4.27.98,6.39.24,1.38.71,1.7,2.17,1.51,1.5-.19,2.99-.52,4.49-.71,1.54-.19,2.72.45,3.39,1.72.61,1.16.46,2.31-.42,3.32-.43.5-.97.89-1.6.99-3.31.56-6.62,1.07-9.93,1.6ZM308.09,303.71c1.48.23,2.94-.7,4.54-.76.51-.02,1.01-.36.96-.88-.06-.66-.63-.86-1.25-.75-1.72.3-3.44.62-5.17.93-.49.09-1.01.21-1.02.8,0,.66.58.64,1.05.67.24.02.48,0,.89,0ZM314.52,317.88c-.9.14-1.76.24-2.6.42-.29.06-.52.34-.53.7-.01.36.19.71.48.7,1.24-.07,2.48-.21,3.71-.38.14-.02.33-.37.34-.58.02-.32-.18-.6-.51-.7-.3-.08-.62-.11-.89-.16Z"/>
  <path d="M313.82,330.46c-.46,0-.63-.37-.74-.75-.11-.36.06-.65.43-.69.48-.05.69.29.73.72.03.31.04.64-.41.72Z"/>
  <path d="M260.59,378.06c-3.1.13-3.3.04-3.61-2.41-.34-2.69-.57-5.39-.78-8.09-.12-1.59.18-1.96,1.82-2.19,2.21-.31,4.43-.61,6.66-.68,3.51-.11,6.55,2.74,6.76,6.13.2,3.12-2.31,6.17-5.66,6.7-1.89.3-3.8.4-5.2.54ZM260.56,367.57c.9-.28,2.02-.17,3.13-.23.56-.03,1.21-.1,1.13-.88-.05-.53-.53-.83-1.03-.8-1.26.09-2.52.24-3.77.41-.41.06-.74.43-.72.84.03.65.59.61,1.26.65Z"/>
  <path d="M408.54,393.63c-1.15-.17-2.64-.43-4.14-.6-1.42-.16-1.91.18-2.15,1.59-.38,2.28-.66,4.57-.99,6.86-.17,1.18.4,1.82,1.52,2,1.26.2,2.52.39,3.79.52.73.07,1.42.27,2.05.61,1.18.64,1.83,2.02,1.57,3.22-.27,1.25-1.34,2.21-2.69,2.38-.39.05-.8.05-1.19,0-3-.44-6-.86-8.99-1.36-1.73-.29-2.07-.73-1.84-2.41.84-6.08,1.72-12.16,2.64-18.23.28-1.85.63-2.14,2.32-1.93,3.16.39,6.33.79,9.46,1.4,2.65.52,3.57,3.26,1.85,5.07-.78.81-1.76,1.04-3.21.89Z"/>
  <path d="M313.01,384.78c6.87.02,12.38,5.48,12.4,12.27.01,7.1-5.55,12.74-12.52,12.71-6.9-.03-12.46-5.62-12.44-12.54.01-6.85,5.68-12.47,12.56-12.45ZM313.34,407.43c4.42-.06,8.89-3.86,9.62-8.18.31-1.86-.19-2.45-2.11-2.47-4.38-.05-8.71,3.56-9.7,8.08-.43,1.95.13,2.6,2.2,2.57ZM309.75,387.89c1.02-.18,2.04-.35,3.05-.56.31-.07.58-.28.58-.66,0-.46-.25-.75-.68-.83-1.24-.25-2.37.21-3.45.7-.42.19-.84.58-.53,1.14.22.4.66.37,1.05.22Z"/>
  <path d="M348.09,318.81c.08-.29.21-.64.54-.65.34-.01.54.3.53.63-.02.32-.21.66-.53.67-.33.01-.49-.31-.54-.65Z"/>
</svg>